<?xml version="1.0" encoding="utf-8"?>
<!-- Generated by Mocodo 4.2.8 -->
<svg width="586" height="120" viewBox="0 0 586 120" xmlns="http://www.w3.org/2000/svg">
<rect x="0" y="0" width="586" height="120" fill="#f5f5f5" stroke="none" stroke-width="0"/>

<!-- Association MAINTIENT -->
<g>
	<line x1="71" y1="60" x2="207" y2="60" stroke="#35978f" stroke-width="2"/>
	<line x1="312" y1="60" x2="207" y2="60" stroke="#35978f" stroke-width="2"/>
	<g>
		<path d="M235 35 a14 14 90 0 1 14 14 V60 h-84 V49 a14 14 90 0 1 14 -14" fill="#80cdc1" stroke="#80cdc1" stroke-width="0"/>
		<path d="M249 60 v11 a14 14 90 0 1 -14 14 H179 a14 14 90 0 1 -14 -14 V60 H84" fill="#c7eae5" stroke="#c7eae5" stroke-width="0"/>
		<rect x="165" y="35" width="84" height="50" fill="none" rx="14" stroke="#35978f" stroke-width="2"/>
		<line x1="165" y1="60" x2="249" y2="60" stroke="#35978f" stroke-width="1"/>
		<text x="172" y="52.75" fill="#000000" font-family="Verdana" font-size="12">MAINTIENT</text>
	</g>
	<text x="138" y="77" fill="#8c510a" font-family="Verdana" font-size="12">0,N</text>
	<text x="254" y="77" fill="#8c510a" font-family="Verdana" font-size="12">0,N</text>
</g>

<!-- Association APPARTIENT -->
<g>
	<line x1="312" y1="60" x2="421" y2="60" stroke="#35978f" stroke-width="2"/>
	<line x1="538" y1="60" x2="421" y2="60" stroke="#35978f" stroke-width="2"/>
	<g>
		<path d="M453 35 a14 14 90 0 1 14 14 V60 h-92 V49 a14 14 90 0 1 14 -14" fill="#80cdc1" stroke="#80cdc1" stroke-width="0"/>
		<path d="M467 60 v11 a14 14 90 0 1 -14 14 H389 a14 14 90 0 1 -14 -14 V60 H92" fill="#c7eae5" stroke="#c7eae5" stroke-width="0"/>
		<rect x="375" y="35" width="92" height="50" fill="none" rx="14" stroke="#35978f" stroke-width="2"/>
		<line x1="375" y1="60" x2="467" y2="60" stroke="#35978f" stroke-width="1"/>
		<text x="383" y="52.75" fill="#000000" font-family="Verdana" font-size="12">APPARTIENT</text>
	</g>
	<text x="348" y="77" fill="#8c510a" font-family="Verdana" font-size="12">0,N</text>
	<text x="473" y="77" fill="#8c510a" font-family="Verdana" font-size="12">1,1</text>
</g>

<!-- Entity ROBOT -->
<g>
	<g>
		<rect x="9" y="18" width="124" height="25" fill="#dfc27d" stroke="none" stroke-width="0" opacity="1"/>
		<rect x="9" y="43" width="124" height="59" fill="#f6e8c3" stroke="none" stroke-width="0" opacity="1"/>
		<rect x="9" y="18" width="124" height="84" fill="none" stroke="#bf812d" stroke-width="2" opacity="1"/>
		<line x1="9" y1="43" x2="133" y2="43" stroke="#bf812d" stroke-width="1"/>
	</g>
	<text x="49" y="35.75" fill="#000000" font-family="Verdana" font-size="12">ROBOT</text>
	<text x="14" y="60.8" fill="#000000" font-family="Verdana" font-size="12">référence</text>
	<line x1="14" y1="63" x2="72" y2="63" stroke="#000000" stroke-width="1"/>
	<text x="14" y="77.8" fill="#000000" font-family="Verdana" font-size="12">nom d’usage</text>
	<text x="14" y="94.8" fill="#000000" font-family="Verdana" font-size="12">date de fabrication</text>
</g>

<!-- Entity ATELIER -->
<g>
	<g>
		<rect x="281" y="18" width="62" height="25" fill="#dfc27d" stroke="none" stroke-width="0" opacity="1"/>
		<rect x="281" y="43" width="62" height="59" fill="#f6e8c3" stroke="none" stroke-width="0" opacity="1"/>
		<rect x="281" y="18" width="62" height="84" fill="none" stroke="#bf812d" stroke-width="2" opacity="1"/>
		<line x1="281" y1="43" x2="343" y2="43" stroke="#bf812d" stroke-width="1"/>
	</g>
	<text x="286" y="35.75" fill="#000000" font-family="Verdana" font-size="12">ATELIER</text>
	<text x="286" y="60.8" fill="#000000" font-family="Verdana" font-size="12">nom</text>
	<line x1="286" y1="63" x2="314" y2="63" stroke="#000000" stroke-width="1"/>
	<text x="286" y="77.8" fill="#000000" font-family="Verdana" font-size="12">section</text>
	<text x="286" y="94.8" fill="#000000" font-family="Verdana" font-size="12">couleur</text>
</g>

<!-- Entity OUTIL -->
<g>
	<g>
		<rect x="499" y="9" width="78" height="25" fill="#dfc27d" stroke="none" stroke-width="0" opacity="1"/>
		<rect x="499" y="34" width="78" height="77" fill="#f6e8c3" stroke="none" stroke-width="0" opacity="1"/>
		<rect x="499" y="9" width="78" height="102" fill="none" stroke="#bf812d" stroke-width="2" opacity="1"/>
		<line x1="499" y1="34" x2="577" y2="34" stroke="#bf812d" stroke-width="1"/>
	</g>
	<text x="519" y="26.75" fill="#000000" font-family="Verdana" font-size="12">OUTIL</text>
	<text x="504" y="51.8" fill="#000000" font-family="Verdana" font-size="12">code outil</text>
	<line x1="504" y1="54" x2="564" y2="54" stroke="#000000" stroke-width="1"/>
	<text x="504" y="68.8" fill="#000000" font-family="Verdana" font-size="12">description</text>
	<text x="504" y="85.8" fill="#000000" font-family="Verdana" font-size="12">gtin&#45;13</text>
	<text x="504" y="102.8" fill="#000000" font-family="Verdana" font-size="12">prix</text>
</g>
</svg>